<?xml version="1.0" encoding="iso-8859-1"?>
<!-- Generator: Adobe Illustrator 19.0.0, SVG Export Plug-In . SVG Version: 6.00 Build 0)  -->
<svg version="1.1" id="Layer_1" xmlns="http://www.w3.org/2000/svg" xmlns:xlink="http://www.w3.org/1999/xlink" x="0px" y="0px"
	 viewBox="0 0 512 512" style="enable-background:new 0 0 512 512;" xml:space="preserve">
<path style="fill:#F4B2B0;" d="M250.982,415.671c64.844-0.466,117.303-70.302,117.303-156.392c0-21.999-5.966-48.855-15.28-76.663
	l-24.113,9.613c-12.595,5.021-25.081-7.467-20.06-20.06l19.803-49.674c-25.104-53.295-55.897-99.455-72.706-109.017"/>
<g>
	<path style="fill:#B3404A;" d="M250.98,429.144c-7.397,0-13.418-5.969-13.47-13.376c-0.054-7.44,5.935-13.516,13.376-13.569
		c57.305-0.412,103.926-64.525,103.926-142.919c0-15.803-3.537-35.927-10.288-58.778l-10.642,4.243
		c-10.905,4.349-22.845,1.893-31.151-6.412c-8.305-8.305-10.762-20.241-6.415-31.152l17.623-44.205
		c-25.127-52.083-52.821-91.047-64.671-97.789c-6.468-3.678-8.729-11.905-5.05-18.373c3.678-6.467,11.901-8.729,18.373-5.048
		c22.712,12.921,55.659,67.061,78.233,114.987c1.591,3.376,1.71,7.263,0.326,10.73l-19.804,49.675
		c-0.143,0.358-0.478,1.203,0.437,2.119c0.918,0.916,1.761,0.581,2.119,0.437l24.113-9.613c3.44-1.373,7.294-1.266,10.656,0.292
		c3.362,1.557,5.932,4.431,7.108,7.944c10.601,31.654,15.976,58.887,15.976,80.942c0,44.523-13.151,86.568-37.031,118.392
		c-24.716,32.936-57.973,51.216-93.647,51.472C251.046,429.144,251.013,429.144,250.98,429.144z"/>
	<path style="fill:#B3404A;" d="M203.175,185.644c-5.353,0-10.416-3.211-12.519-8.487l-19.803-49.675
		c-1.382-3.468-1.264-7.354,0.327-10.73c22.523-47.816,55.412-101.894,78.117-114.921c6.456-3.702,14.69-1.473,18.391,4.981
		c3.704,6.455,1.474,14.688-4.981,18.391c-11.872,6.812-39.561,45.787-64.642,97.771l17.623,44.204
		c2.755,6.912-0.614,14.749-7.526,17.504C206.525,185.336,204.836,185.644,203.175,185.644z"/>
	<path style="fill:#B3404A;" d="M261.023,429.144c-0.034,0-0.066,0-0.1,0c-35.674-0.256-68.931-18.536-93.647-51.472
		c-23.88-31.823-37.031-73.869-37.031-118.392c0-22.054,5.376-49.287,15.976-80.942c2.363-7.056,9.998-10.858,17.054-8.497
		c7.056,2.363,10.861,9.998,8.497,17.054c-9.54,28.485-14.582,53.515-14.582,72.385c0,78.394,46.621,142.507,103.927,142.919
		c7.44,0.054,13.429,6.129,13.376,13.57C274.439,423.174,268.418,429.144,261.023,429.144z"/>
	<path style="fill:#B3404A;" d="M256.002,512c-7.441,0-13.473-6.032-13.473-13.473V17.118c0-7.441,6.032-13.473,13.473-13.473
		c7.44,0,13.473,6.032,13.473,13.473v481.409C269.475,505.969,263.441,512,256.002,512z"/>
</g>
<g>
</g>
<g>
</g>
<g>
</g>
<g>
</g>
<g>
</g>
<g>
</g>
<g>
</g>
<g>
</g>
<g>
</g>
<g>
</g>
<g>
</g>
<g>
</g>
<g>
</g>
<g>
</g>
<g>
</g>
</svg>
